HIERARCHY
ROOT Hips
{
 OFFSET 0.000000 0.000000 0.000000
 CHANNELS 6 Xposition Yposition Zposition Yrotation Xrotation Zrotation
 JOINT Chest
 {
  OFFSET 0.000000 9.585900 0.002600
  CHANNELS 3 Yrotation Xrotation Zrotation
  JOINT Chest2
  {
   OFFSET 0.000000 9.601200 -0.005300
   CHANNELS 3 Yrotation Xrotation Zrotation
   JOINT Chest3
   {
    OFFSET 0.000000 9.561800 0.000000
    CHANNELS 3 Yrotation Xrotation Zrotation
    JOINT Chest4
    {
     OFFSET 0.000000 9.552100 0.000000
     CHANNELS 3 Yrotation Xrotation Zrotation
     JOINT Neck
     {
      OFFSET 0.000000 14.453000 0.000000
      CHANNELS 3 Yrotation Xrotation Zrotation
      JOINT Head
      {
       OFFSET 0.000000 8.936500 -0.011300
       CHANNELS 3 Yrotation Xrotation Zrotation
       End Site
       {
        OFFSET 0.000000 17.073600 -0.006000
       }
      }
     }
     JOINT RightCollar
     {
      OFFSET -2.921100 9.558500 0.000000
      CHANNELS 3 Yrotation Xrotation Zrotation
      JOINT RightShoulder
      {
       OFFSET -13.519700 0.000000 0.000000
       CHANNELS 3 Yrotation Xrotation Zrotation
       JOINT RightElbow
       {
        OFFSET 0.000000 -29.696600 0.000000
        CHANNELS 3 Yrotation Xrotation Zrotation
        JOINT RightWrist
        {
         OFFSET 0.000000 -24.004700 0.000000
         CHANNELS 3 Yrotation Xrotation Zrotation
         End Site
         {
          OFFSET 0.000000 -17.728500 0.000000
         }
        }
       }
      }
     }
     JOINT LeftCollar
     {
      OFFSET 2.921100 9.558500 0.000000
      CHANNELS 3 Yrotation Xrotation Zrotation
      JOINT LeftShoulder
      {
       OFFSET 13.519700 0.000000 0.000000
       CHANNELS 3 Yrotation Xrotation Zrotation
       JOINT LeftElbow
       {
        OFFSET 0.000000 -29.696600 0.000000
        CHANNELS 3 Yrotation Xrotation Zrotation
        JOINT LeftWrist
        {
         OFFSET 0.000000 -24.004700 0.000000
         CHANNELS 3 Yrotation Xrotation Zrotation
         End Site
         {
          OFFSET 0.000000 -17.728500 0.000000
         }
        }
       }
      }
     }
    }
   }
  }
 }
 JOINT RightHip
 {
  OFFSET -7.771700 -0.012900 -0.001300
  CHANNELS 3 Yrotation Xrotation Zrotation
  JOINT RightKnee
  {
   OFFSET 0.000000 -40.869800 0.001200
   CHANNELS 3 Yrotation Xrotation Zrotation
   JOINT RightAnkle
   {
    OFFSET 0.000000 -39.717900 0.002100
    CHANNELS 3 Yrotation Xrotation Zrotation
    JOINT RightToe
    {
     OFFSET 0.000000 -4.965400 11.033500
     CHANNELS 3 Yrotation Xrotation Zrotation
     End Site
     {
      OFFSET 0.000000 -1.423100 5.872300
     }
    }
   }
  }
 }
 JOINT LeftHip
 {
  OFFSET 7.771700 -0.012900 -0.001300
  CHANNELS 3 Yrotation Xrotation Zrotation
  JOINT LeftKnee
  {
   OFFSET 0.000000 -40.869800 0.001200
   CHANNELS 3 Yrotation Xrotation Zrotation
   JOINT LeftAnkle
   {
    OFFSET 0.000000 -39.717900 0.002100
    CHANNELS 3 Yrotation Xrotation Zrotation
    JOINT LeftToe
    {
     OFFSET 0.000000 -4.965400 11.033500
     CHANNELS 3 Yrotation Xrotation Zrotation
     End Site
     {
      OFFSET 0.000000 -1.423100 5.872300
     }
    }
   }
  }
 }
}
MOTION
Frames: 9
Frame Time: 0.008333
0.000000 85.388000 0.000000 0.000000 -5.767877 0.000000 0.000000 11.653817 0.000000 0.000000 -5.885947 0.000000 0.000000 -0.000000 0.000000 0.000000 -0.000000 0.000000 0.000000 12.528835 0.000000 0.000000 0.711642 0.000000 0.000000 -0.000000 0.000000 0.000000 0.000000 -90.000000 0.000000 -2.309062 0.000000 0.000000 2.309062 0.000000 0.000000 -0.000000 0.000000 0.000000 -0.000000 90.000000 0.000000 -2.309062 0.000000 0.000000 2.309062 0.000000 0.000000 8.520406 0.000000 0.000000 1.905762 0.000000 -0.000000 -4.658285 0.000000 0.000000 -0.000000 0.000000 0.000000 8.520406 0.000000 0.000000 1.905762 0.000000 -0.000000 -4.658285 0.000000 0.000000 -0.000000 0.000000
-77.758196 55.682770 -41.039309 -173.241959 -13.463946 -0.823736 -0.667846 15.077008 0.139422 -0.056510 1.371250 0.032067 -0.101545 2.362290 0.056052 -0.550043 13.483043 0.266950 1.257505 14.511032 -3.533647 2.051153 -10.317554 -3.932237 0.578471 0.524445 1.115399 -3.006559 -6.927188 -5.829015 -70.795438 -43.097493 105.968158 -19.455326 8.163247 1.109061 -6.717659 -1.473636 1.893527 7.998979 -12.584976 3.410256 53.222784 -26.892177 -95.779001 21.591176 -13.652519 -1.517396 -4.819866 -61.713820 8.698642 -28.199478 85.879250 -32.932462 -9.443297 -17.479997 13.953053 0.020430 -0.072322 0.025391 10.363380 -58.488225 -12.759320 90.859815 70.326635 92.577824 1.316296 -19.387467 -3.450716 0.044234 0.159408 0.033759
-77.759959 55.684507 -41.041514 -173.242241 -13.453380 -0.824853 -0.668011 15.071936 0.140957 -0.058087 1.406786 0.031439 -0.100370 2.346853 0.055116 -0.557134 13.488093 0.267921 1.229882 14.535774 -3.500303 2.013730 -10.284536 -3.903777 0.586880 0.533679 1.103223 -3.072939 -6.841829 -5.756405 -70.017871 -41.658780 105.584810 -20.523522 7.043910 0.722523 -6.707619 -1.471984 1.895206 8.159790 -12.569748 3.199973 52.993866 -25.197691 -95.821506 22.520907 -14.461333 -1.903188 -4.823914 -61.721054 8.697882 -28.121304 85.882812 -32.857111 -9.428220 -17.486525 13.960954 0.004590 -0.072159 0.014698 10.366206 -58.497465 -12.759382 90.879745 70.322469 92.592108 1.313419 -19.392814 -3.445866 0.044501 0.158079 0.028913
-77.761104 55.686340 -41.044255 -173.231509 -13.440204 -0.832465 -0.675161 15.082498 0.144922 -0.057345 1.411641 0.030371 -0.101268 2.342023 0.055846 -0.561032 13.479417 0.269855 1.195767 14.580921 -3.472357 1.969685 -10.246651 -3.875713 0.579252 0.620821 1.069537 -3.133201 -6.851377 -5.666612 -69.237964 -40.160245 105.214196 -21.592731 5.853355 0.321303 -6.702706 -1.455131 1.896813 8.316496 -12.557238 2.998433 52.763681 -23.518979 -95.860447 23.472993 -15.300422 -2.279580 -4.851577 -61.729009 8.712678 -28.077408 85.885537 -32.816959 -9.424420 -17.491663 13.963268 0.021493 -0.071407 0.012903 10.353894 -58.507266 -12.748367 90.877500 70.330096 92.587504 1.309811 -19.399007 -3.445168 0.048980 0.161172 0.030596
-77.762362 55.688076 -41.047265 -173.220295 -13.424152 -0.838584 -0.681863 15.087242 0.145506 -0.058748 1.412246 0.032262 -0.101361 2.342738 0.055734 -0.563017 13.470478 0.271153 1.158596 14.629736 -3.450017 1.916436 -10.201824 -3.846323 0.559430 0.707458 1.028077 -3.190037 -6.865244 -5.567529 -68.512070 -38.676926 104.910099 -22.663528 4.610496 -0.103082 -6.698170 -1.407037 1.910217 8.471033 -12.575699 2.788363 52.535310 -21.850817 -95.888068 24.391758 -16.105411 -2.670287 -4.873568 -61.739145 8.720530 -27.998066 85.888519 -32.737327 -9.433599 -17.499495 13.971158 -0.000330 -0.072200 0.007005 10.345152 -58.521229 -12.744388 90.875769 70.331193 92.582338 1.307775 -19.400445 -3.440262 0.045731 0.160939 0.029034
-77.763545 55.688961 -41.047866 -173.214233 -13.389710 -0.840414 -0.685161 15.073241 0.146522 -0.061544 1.413716 0.029229 -0.101561 2.343133 0.055197 -0.558009 13.471314 0.273964 1.115199 14.671716 -3.430187 1.852166 -10.155427 -3.816994 0.538251 0.741298 0.999005 -3.252419 -6.843826 -5.480994 -67.857753 -37.265407 104.667674 -23.725519 3.338448 -0.540801 -6.698700 -1.305960 1.953745 8.627654 -12.653703 2.545301 52.323137 -20.215831 -95.910153 25.236380 -16.788121 -3.093132 -4.884088 -61.771584 8.725384 -27.886127 85.894620 -32.626570 -9.454659 -17.501438 13.982212 -0.007682 -0.073041 0.002434 10.349468 -58.556887 -12.750365 90.886202 70.335006 92.588673 1.302494 -19.397659 -3.434978 0.048428 0.157097 0.027143
-77.763525 55.689952 -41.050595 -173.208772 -13.364672 -0.848619 -0.689848 15.081229 0.147394 -0.060809 1.402511 0.029635 -0.102197 2.343264 0.054241 -0.567000 13.494924 0.258752 1.080689 14.693290 -3.398721 1.784990 -10.110757 -3.786348 0.543596 0.714247 1.007062 -3.323510 -6.792886 -5.415266 -67.276473 -35.971309 104.469471 -24.711091 2.085758 -0.974711 -6.680794 -1.285178 2.000322 8.762520 -12.673497 2.331524 52.147406 -18.647781 -95.938134 25.976587 -17.292425 -3.541564 -4.902685 -61.793316 8.741740 -27.879525 85.895011 -32.618773 -9.471698 -17.500355 13.995030 0.006295 -0.073710 -0.003856 10.340282 -58.585565 -12.736222 90.905470 70.342682 92.605953 1.292009 -19.394960 -3.432288 0.055544 0.152336 0.028497
-77.764056 55.691186 -41.056051 -173.210935 -13.354994 -0.851748 -0.686537 15.082796 0.148321 -0.061881 1.411900 0.025247 -0.102768 2.342925 0.052937 -0.571231 13.494048 0.251036 0.979702 14.787776 -3.373698 1.768872 -10.118318 -3.771619 0.497402 0.791549 0.940980 -3.315304 -6.851499 -5.302125 -66.791159 -34.794086 104.273415 -25.551407 0.929435 -1.387087 -6.665583 -1.235963 2.039439 8.890524 -12.691622 2.123132 52.026763 -17.177081 -95.978067 26.588383 -17.612610 -3.987300 -4.908067 -61.799943 8.748650 -27.913467 85.897312 -32.655011 -9.466349 -17.501742 14.000429 0.028662 -0.076048 -0.003678 10.337930 -58.595808 -12.726575 90.945619 70.352789 92.643159 1.295102 -19.403635 -3.427936 0.057371 0.148400 0.025137
-77.765217 55.692101 -41.061800 -173.208693 -13.346709 -0.850856 -0.688537 15.094248 0.140800 -0.066071 1.412616 0.023647 -0.100720 2.337186 0.053639 -0.572645 13.492572 0.244802 0.901299 14.850286 -3.355751 1.720438 -10.092384 -3.742611 0.459559 0.831976 0.900094 -3.314071 -6.870223 -5.219484 -66.370850 -33.773183 104.081797 -26.224711 -0.055230 -1.716685 -6.653193 -1.176075 2.076591 9.018076 -12.706616 1.924795 51.963545 -15.845805 -96.025291 27.069955 -17.775673 -4.392922 -4.917020 -61.804911 8.753650 -27.940088 85.899468 -32.679747 -9.497937 -17.503432 14.003124 0.065590 -0.072521 0.001876 10.338365 -58.603342 -12.726414 90.967066 70.357224 92.659918 1.296683 -19.405633 -3.420675 0.054887 0.143658 0.020296
